<svg width="41" height="42" viewBox="0 0 41 42" fill="none" xmlns="http://www.w3.org/2000/svg">
<path d="M30 0H10C4.47715 0 0 4.47715 0 10V30C0 35.5228 4.47715 40 10 40H30C35.5228 40 40 35.5228 40 30V10C40 4.47715 35.5228 0 30 0Z" fill="#212121"/>
<g filter="url(#filter0_d_19_270)">
<path d="M16.6051 8.86452L20.3345 8.50193L17.0195 29.5319L12.5131 29.9462L16.6051 8.86452Z" fill="white"/>
<path d="M19.0263 8.64006L20.3346 8.50182L22.3437 8.30138L27.9038 30.8825L23.5504 31.273L19.0263 8.64006Z" fill="white"/>
<rect x="15.4327" y="21.9178" width="8.54665" height="3.31506" transform="rotate(1.22357 15.4327 21.9178)" fill="white"/>
</g>
<defs>
<filter id="filter0_d_19_270" x="7.71306" y="6.70138" width="24.9907" height="32.5716" filterUnits="userSpaceOnUse" color-interpolation-filters="sRGB">
<feFlood flood-opacity="0" result="BackgroundImageFix"/>
<feColorMatrix in="SourceAlpha" type="matrix" values="0 0 0 0 0 0 0 0 0 0 0 0 0 0 0 0 0 0 127 0" result="hardAlpha"/>
<feOffset dy="3.2"/>
<feGaussianBlur stdDeviation="2.4"/>
<feColorMatrix type="matrix" values="0 0 0 0 0 0 0 0 0 0 0 0 0 0 0 0 0 0 0.25 0"/>
<feBlend mode="normal" in2="BackgroundImageFix" result="effect1_dropShadow_19_270"/>
<feBlend mode="normal" in="SourceGraphic" in2="effect1_dropShadow_19_270" result="shape"/>
</filter>
</defs>
</svg>
